<mxfile host="app.diagrams.net" modified="2020-08-29T00:25:30.017Z" agent="5.0 (Windows NT 10.0; Win64; x64) AppleWebKit/537.36 (KHTML, like Gecko) Chrome/84.0.4147.135 Safari/537.36" etag="XkUgO9hdXPcuYoRJfMyt" version="13.6.5" type="github">
  <diagram name="Page-1" id="e7e014a7-5840-1c2e-5031-d8a46d1fe8dd">
    <mxGraphModel dx="1422" dy="794" grid="1" gridSize="10" guides="1" tooltips="1" connect="1" arrows="1" fold="1" page="1" pageScale="1" pageWidth="1169" pageHeight="826" background="#ffffff" math="0" shadow="0">
      <root>
        <mxCell id="0" />
        <mxCell id="1" parent="0" />
        <mxCell id="LHH6y7cKENH27dMYag3X-50" style="edgeStyle=orthogonalEdgeStyle;rounded=0;orthogonalLoop=1;jettySize=auto;html=1;entryX=0;entryY=0.5;entryDx=0;entryDy=0;" edge="1" parent="1" source="LHH6y7cKENH27dMYag3X-41" target="LHH6y7cKENH27dMYag3X-44">
          <mxGeometry relative="1" as="geometry">
            <Array as="points">
              <mxPoint x="155" y="140" />
            </Array>
          </mxGeometry>
        </mxCell>
        <mxCell id="LHH6y7cKENH27dMYag3X-51" style="edgeStyle=orthogonalEdgeStyle;rounded=0;orthogonalLoop=1;jettySize=auto;html=1;entryX=0;entryY=0.5;entryDx=0;entryDy=0;" edge="1" parent="1" source="LHH6y7cKENH27dMYag3X-41" target="LHH6y7cKENH27dMYag3X-45">
          <mxGeometry relative="1" as="geometry">
            <Array as="points">
              <mxPoint x="260" y="240" />
            </Array>
          </mxGeometry>
        </mxCell>
        <mxCell id="LHH6y7cKENH27dMYag3X-41" value="Médico" style="shape=umlActor;verticalLabelPosition=bottom;verticalAlign=top;html=1;" vertex="1" parent="1">
          <mxGeometry x="140" y="190" width="30" height="60" as="geometry" />
        </mxCell>
        <mxCell id="LHH6y7cKENH27dMYag3X-52" style="edgeStyle=orthogonalEdgeStyle;rounded=0;orthogonalLoop=1;jettySize=auto;html=1;entryX=1;entryY=0.5;entryDx=0;entryDy=0;" edge="1" parent="1" target="LHH6y7cKENH27dMYag3X-46">
          <mxGeometry relative="1" as="geometry">
            <mxPoint x="595" y="180" as="sourcePoint" />
            <Array as="points">
              <mxPoint x="595" y="140" />
            </Array>
          </mxGeometry>
        </mxCell>
        <mxCell id="LHH6y7cKENH27dMYag3X-53" style="edgeStyle=orthogonalEdgeStyle;rounded=0;orthogonalLoop=1;jettySize=auto;html=1;entryX=1;entryY=0.5;entryDx=0;entryDy=0;" edge="1" parent="1" target="LHH6y7cKENH27dMYag3X-45">
          <mxGeometry relative="1" as="geometry">
            <mxPoint x="580" y="230" as="sourcePoint" />
            <Array as="points">
              <mxPoint x="580" y="240" />
            </Array>
          </mxGeometry>
        </mxCell>
        <mxCell id="LHH6y7cKENH27dMYag3X-42" value="Paciente" style="shape=umlActor;verticalLabelPosition=bottom;verticalAlign=top;html=1;" vertex="1" parent="1">
          <mxGeometry x="580" y="190" width="30" height="60" as="geometry" />
        </mxCell>
        <mxCell id="LHH6y7cKENH27dMYag3X-44" value="Consultar consultas por médico" style="ellipse;whiteSpace=wrap;html=1;" vertex="1" parent="1">
          <mxGeometry x="260" y="100" width="120" height="80" as="geometry" />
        </mxCell>
        <mxCell id="LHH6y7cKENH27dMYag3X-45" value="Marcar consultas" style="ellipse;whiteSpace=wrap;html=1;" vertex="1" parent="1">
          <mxGeometry x="260" y="200" width="120" height="80" as="geometry" />
        </mxCell>
        <mxCell id="LHH6y7cKENH27dMYag3X-46" value="Consultar consultas por paciente" style="ellipse;whiteSpace=wrap;html=1;" vertex="1" parent="1">
          <mxGeometry x="420" y="100" width="120" height="80" as="geometry" />
        </mxCell>
        <mxCell id="LHH6y7cKENH27dMYag3X-48" value="Serviço de médicos" style="text;html=1;strokeColor=none;fillColor=none;align=center;verticalAlign=middle;whiteSpace=wrap;rounded=0;" vertex="1" parent="1">
          <mxGeometry x="250" y="50" width="140" height="20" as="geometry" />
        </mxCell>
        <mxCell id="LHH6y7cKENH27dMYag3X-49" value="Serviço de pacientes" style="text;html=1;strokeColor=none;fillColor=none;align=center;verticalAlign=middle;whiteSpace=wrap;rounded=0;" vertex="1" parent="1">
          <mxGeometry x="410" y="50" width="140" height="20" as="geometry" />
        </mxCell>
        <mxCell id="LHH6y7cKENH27dMYag3X-54" value="" style="endArrow=none;dashed=1;html=1;dashPattern=1 3;strokeWidth=2;" edge="1" parent="1">
          <mxGeometry width="50" height="50" relative="1" as="geometry">
            <mxPoint x="405" y="320" as="sourcePoint" />
            <mxPoint x="405" y="40" as="targetPoint" />
          </mxGeometry>
        </mxCell>
      </root>
    </mxGraphModel>
  </diagram>
</mxfile>
